<?xml version="1.0" standalone="no"?>
<!DOCTYPE svg PUBLIC "-//W3C//DTD SVG 20010904//EN"
 "http://www.w3.org/TR/2001/REC-SVG-20010904/DTD/svg10.dtd">
<svg version="1.0" xmlns="http://www.w3.org/2000/svg"
 width="512.000000pt" height="512.000000pt" viewBox="0 0 512.000000 512.000000"
 preserveAspectRatio="xMidYMid meet">
<metadata>
Created by potrace 1.16, written by Peter Selinger 2001-2019
</metadata>
<g transform="translate(0.000000,512.000000) scale(0.100000,-0.100000)"
fill="#000000" stroke="none">
<path d="M2079 3971 c-28 -28 -29 -33 -29 -120 l0 -91 -230 0 -230 0 -38 -34
-37 -34 -3 -175 -4 -175 -45 -12 c-72 -18 -116 -45 -171 -105 -86 -94 -82 -49
-82 -925 0 -868 -2 -838 74 -914 80 -81 3 -76 1223 -76 915 0 1089 2 1118 14
52 22 125 95 151 151 l24 50 0 665 c0 366 3 675 6 688 6 20 12 22 81 22 86 0
122 -15 152 -63 21 -34 21 -42 21 -705 l0 -671 -31 -35 c-19 -22 -43 -38 -65
-42 -27 -5 -34 -11 -34 -29 0 -33 31 -40 77 -16 48 24 78 56 98 103 13 32 15
124 15 693 0 716 2 695 -58 759 -43 45 -97 66 -178 66 l-72 0 -7 65 c-9 83
-51 170 -111 225 -79 73 -164 99 -341 107 l-103 4 0 132 c0 150 -11 186 -69
224 -31 21 -46 23 -162 23 l-129 0 0 90 c0 97 -14 141 -49 160 -13 6 -151 10
-376 10 l-357 0 -29 -29z m739 -43 c9 -9 12 -75 12 -235 l0 -223 68 6 c94 9
112 -2 112 -66 l0 -50 -525 0 -525 0 0 65 0 65 70 0 70 0 0 203 c0 167 3 206
16 225 15 22 15 22 353 22 249 0 340 -3 349 -12z m-768 -303 l0 -75 -56 0
c-89 0 -94 -6 -94 -105 l0 -85 -165 0 -165 0 0 151 c0 84 5 159 10 170 10 18
24 19 240 19 l230 0 0 -75z m1111 36 l29 -29 0 -136 0 -136 -59 0 -59 0 -4 60
c-4 49 -9 66 -31 88 -24 23 -36 27 -90 28 -71 1 -74 5 -62 101 l6 53 120 0
c120 0 121 0 150 -29z m338 -376 c16 -8 31 -12 34 -9 3 3 21 -2 42 -10 106
-45 175 -149 175 -266 l0 -67 -61 -7 c-34 -3 -149 -6 -255 -6 l-194 0 0 48 c0
113 -41 168 -120 159 -66 -7 -90 -42 -90 -129 0 -62 -2 -68 -22 -73 -13 -3
-259 -4 -548 -3 l-524 3 -2 61 c-2 71 -14 98 -57 124 -38 24 -59 25 -101 5
-44 -21 -59 -50 -65 -125 l-6 -65 -222 -3 -223 -2 0 63 c0 128 49 216 150 271
29 16 75 32 104 36 28 4 480 8 1004 9 818 1 957 -1 981 -14z m-1639 -235 c17
-17 20 -33 20 -120 l0 -100 -55 0 -55 0 0 102 c0 80 3 105 17 120 21 24 48 23
73 -2z m1303 7 c16 -11 17 -30 15 -162 l-3 -150 -47 -1 -48 -1 0 145 c0 121 3
148 17 164 19 21 42 23 66 5z m-1445 -390 l2 -198 23 3 c21 3 22 7 25 151 l3
147 54 0 55 0 0 -164 c0 -149 -2 -166 -20 -189 -59 -75 -171 -44 -195 54 -4
17 -1 30 9 38 21 17 20 55 0 72 -14 11 -20 9 -45 -19 -49 -55 -35 -139 35
-200 43 -38 72 -46 133 -39 49 5 85 27 117 71 19 25 21 43 24 236 1 115 2 216
2 225 0 13 62 15 545 15 l545 0 0 -79 c0 -103 7 -111 104 -111 43 0 77 5 84
12 7 7 12 44 12 96 l0 84 260 -3 260 -3 0 -453 0 -452 -1240 -1 -1240 0 0 454
0 454 223 -1 222 -2 3 -198z m-378 -944 c0 -218 7 -242 85 -311 l48 -42 -32 0
c-65 0 -137 51 -160 113 -7 17 -11 111 -11 228 l0 199 35 0 35 0 0 -187z
m2408 -1 c-3 -176 -4 -190 -28 -237 -15 -29 -43 -63 -68 -82 l-44 -33 -1008 0
c-554 0 -1022 -3 -1039 -6 -27 -6 -31 -4 -31 14 0 14 -16 32 -45 52 -24 17
-57 52 -72 78 -27 46 -28 51 -31 225 l-4 178 1187 -1 1187 -1 -4 -187z"/>
<path d="M2172 3878 c-19 -19 -17 -444 2 -451 31 -12 36 16 36 215 l0 198 261
2 c261 3 262 3 270 26 l8 22 -282 0 c-207 0 -286 -3 -295 -12z"/>
<path d="M2352 2763 l3 -28 203 3 202 2 0 -145 0 -145 -220 0 -220 0 0 114 c0
116 -7 139 -35 116 -12 -10 -15 -53 -15 -239 0 -163 3 -230 12 -239 17 -17
509 -17 526 0 16 16 17 540 2 569 -10 18 -23 19 -236 19 l-225 0 3 -27z m408
-443 l0 -70 -220 0 -220 0 0 70 0 70 220 0 220 0 0 -70z"/>
<path d="M2274 2769 c-9 -16 12 -33 31 -25 14 5 15 9 5 21 -15 18 -26 19 -36
4z"/>
<path d="M3198 2495 c-66 -36 -90 -147 -46 -211 26 -38 67 -64 101 -64 14 0
27 -7 31 -15 6 -17 71 -21 81 -4 4 5 -1 19 -10 29 -17 19 -17 20 6 39 21 17
22 21 9 34 -19 18 -90 11 -90 -9 0 -44 -73 -11 -90 41 -28 85 67 159 138 109
28 -19 28 -32 0 -36 -15 -2 -23 -10 -23 -23 0 -18 7 -20 65 -20 54 0 65 3 68
18 4 19 -57 95 -91 114 -30 17 -116 15 -149 -2z"/>
<path d="M1880 1761 c-5 -11 -10 -67 -10 -124 0 -139 -3 -137 166 -137 88 0
134 4 142 12 17 17 17 239 0 256 -8 8 -56 12 -150 12 -126 0 -138 -2 -148 -19z
m258 -123 l3 -88 -106 0 -105 0 0 90 0 91 103 -3 102 -3 3 -87z"/>
<path d="M2832 1764 c-21 -14 -22 -23 -22 -129 0 -103 2 -115 19 -125 29 -15
374 -13 389 2 8 8 12 51 12 130 0 106 -2 118 -19 128 -11 6 -91 10 -188 10
-136 0 -173 -3 -191 -16z m343 -125 l0 -84 -149 -3 c-82 -1 -153 1 -158 6 -5
5 -6 43 -2 85 l7 76 141 3 c77 2 146 3 151 2 6 0 10 -36 10 -85z"/>
<path d="M1234 3966 c-10 -26 4 -48 28 -44 17 2 23 10 23 28 0 18 -6 26 -23
28 -13 2 -25 -3 -28 -12z"/>
<path d="M3700 3661 c-23 -44 27 -78 62 -43 16 16 18 23 9 41 -15 27 -57 28
-71 2z"/>
<path d="M1120 3526 c-18 -22 -5 -48 22 -44 17 2 23 10 23 28 0 29 -26 38 -45
16z"/>
<path d="M3877 3384 c-12 -12 -8 -42 6 -47 21 -8 39 8 35 29 -3 19 -29 30 -41
18z"/>
<path d="M1037 3132 c-22 -24 -21 -45 3 -67 45 -40 105 20 65 65 -23 25 -47
25 -68 2z"/>
<path d="M988 2189 c-22 -12 -24 -62 -4 -79 39 -32 100 23 72 65 -15 23 -44
29 -68 14z"/>
<path d="M923 1744 c-9 -23 13 -40 32 -24 12 10 13 16 4 26 -15 18 -28 18 -36
-2z"/>
</g>
</svg>